<!DOCTYPE svg PUBLIC "-//W3C//DTD SVG 1.1//EN" "http://www.w3.org/Graphics/SVG/1.1/DTD/svg11.dtd">
<!-- Uploaded to: SVG Repo, www.svgrepo.com, Transformed by: SVG Repo Mixer Tools -->
<svg fill="#581b1f" height="100px" width="100px" version="1.1" id="Layer_1" xmlns="http://www.w3.org/2000/svg" xmlns:xlink="http://www.w3.org/1999/xlink" viewBox="0 0 512 512" xml:space="preserve">
<g id="SVGRepo_bgCarrier" stroke-width="0"/>
<g id="SVGRepo_tracerCarrier" stroke-linecap="round" stroke-linejoin="round"/>
<g id="SVGRepo_iconCarrier"> <g> <g> <path d="M345.354,76.003C338.384,32.966,300.973,0,256,0c-44.971,0-82.382,32.966-89.35,76.003 c-43.036,6.968-76.006,44.38-76.006,89.351c0.001,36.841,22.126,68.607,53.782,82.723h223.152 c31.656-14.116,53.779-45.882,53.779-82.723C421.356,120.382,388.39,82.971,345.354,76.003z"/> </g> </g> <g> <g> <path d="M156.407,279.451L156.407,279.451l84.938,222.458c2.321,6.077,8.152,10.091,14.656,10.091 c6.506,0,12.335-4.015,14.656-10.091l84.94-222.458H156.407z"/> </g> </g> </g>
</svg>